<?xml version="1.0" encoding="UTF-8" standalone="no"?>
<!DOCTYPE svg PUBLIC "-//W3C//DTD SVG 1.1//EN" "http://www.w3.org/Graphics/SVG/1.1/DTD/svg11.dtd">
<svg version="1.1" xmlns="http://www.w3.org/2000/svg" xmlns:xlink="http://www.w3.org/1999/xlink" preserveAspectRatio="xMidYMid meet" viewBox="0 0 288 288" width="288" height="288"><defs><path d="M243.35 45.68C268.51 70.85 284.08 105.62 284.08 144.02C284.08 182.42 268.51 217.19 243.35 242.36C218.18 267.52 183.41 283.09 145.01 283.09C106.61 283.09 71.84 267.52 46.67 242.36C21.51 217.19 5.94 182.42 5.94 144.02C5.94 105.62 21.51 70.85 46.67 45.68C71.84 20.52 106.61 4.95 145.01 4.95C183.41 4.95 218.18 20.52 243.35 45.68ZM181.72 98.13L181.72 70.59C167.96 70.59 160.31 70.59 158.78 70.59C141.07 70.59 126.66 85 126.66 102.71C126.66 103.63 126.66 108.22 126.66 116.48L108.3 116.48L108.3 144.02L126.65 144.02L126.65 217.45L154.19 217.45L154.19 144.02L177.14 144.02L181.72 116.48L154.19 116.48C154.19 108.22 154.19 103.63 154.19 102.71C154.19 100.22 156.29 98.12 158.78 98.12C158.78 98.12 158.78 98.12 158.78 98.13L181.72 98.13ZM145.01 18.2C110.26 18.2 78.81 32.28 56.04 55.05C33.27 77.82 19.19 109.27 19.19 144.02C19.19 178.77 33.27 210.22 56.04 232.99C78.81 255.76 110.26 269.84 145.01 269.84C179.76 269.84 211.21 255.76 233.98 232.99C256.75 210.22 270.83 178.76 270.83 144.02C270.83 109.27 256.75 77.82 233.98 55.05C211.21 32.28 179.76 18.2 145.01 18.2Z" id="e1InO0GhN"></path></defs><g><g><g><use xlink:href="#e1InO0GhN" opacity="1" fill="#6317a6" fill-opacity="1"></use><g><use xlink:href="#e1InO0GhN" opacity="1" fill-opacity="0" stroke="#000000" stroke-width="1" stroke-opacity="0"></use></g></g></g></g></svg>