<?xml version="1.0" encoding="UTF-8" standalone="no"?>
<!-- Created with Inkscape (http://www.inkscape.org/) -->

<svg
   xmlns:dc="http://purl.org/dc/elements/1.1/"
   xmlns:cc="http://creativecommons.org/ns#"
   xmlns:rdf="http://www.w3.org/1999/02/22-rdf-syntax-ns#"
   xmlns:svg="http://www.w3.org/2000/svg"
   xmlns="http://www.w3.org/2000/svg"
   xmlns:xlink="http://www.w3.org/1999/xlink"
   xmlns:sodipodi="http://sodipodi.sourceforge.net/DTD/sodipodi-0.dtd"
   xmlns:inkscape="http://www.inkscape.org/namespaces/inkscape"
   width="9.9061604in"
   height="8.0762596in"
   viewBox="0 0 251.61659 205.13718"
   version="1.1"
   id="svg8"
   inkscape:version="0.92.4 (5da689c313, 2019-01-14)"
   sodipodi:docname="girl-code.svg">
  <defs
     id="defs2">
    <linearGradient
       inkscape:collect="always"
       id="linearGradient6056">
      <stop
         style="stop-color:#ce14b6;stop-opacity:0.81960785"
         offset="0"
         id="stop6052" />
      <stop
         style="stop-color:#e50aab;stop-opacity:0.77254903"
         offset="1"
         id="stop6054" />
    </linearGradient>
    <linearGradient
       id="linearGradient4984"
       inkscape:collect="always">
      <stop
         id="stop4980"
         offset="0"
         style="stop-color:#7936d8;stop-opacity:0.99004978" />
      <stop
         id="stop4982"
         offset="1"
         style="stop-color:#ff00a1;stop-opacity:0.72139305" />
    </linearGradient>
    <linearGradient
       inkscape:collect="always"
       id="linearGradient4920">
      <stop
         style="stop-color:#6e36d3;stop-opacity:1;"
         offset="0"
         id="stop4916" />
      <stop
         style="stop-color:#ff0080;stop-opacity:0.29353234"
         offset="1"
         id="stop4918" />
    </linearGradient>
    <linearGradient
       inkscape:collect="always"
       xlink:href="#linearGradient4920"
       id="linearGradient4922"
       x1="102.42813"
       y1="146.02068"
       x2="106.68076"
       y2="285.4939"
       gradientUnits="userSpaceOnUse"
       gradientTransform="matrix(1.0303623,0,0,1.0937132,-7.0716982,-117.16085)" />
    <linearGradient
       inkscape:collect="always"
       xlink:href="#linearGradient4984"
       id="linearGradient4934"
       gradientUnits="userSpaceOnUse"
       gradientTransform="matrix(1.0857838,0,0,1.1131008,-7.1937755,-118.68189)"
       x1="102.42813"
       y1="146.02068"
       x2="106.68076"
       y2="266.7254" />
    <linearGradient
       inkscape:collect="always"
       xlink:href="#linearGradient4984"
       id="linearGradient5853"
       x1="148.51367"
       y1="21.093601"
       x2="306.08392"
       y2="21.977579"
       gradientUnits="userSpaceOnUse"
       gradientTransform="matrix(1.2296754,0,0,1.2296754,-166.77957,-9.9155141)" />
    <linearGradient
       inkscape:collect="always"
       xlink:href="#linearGradient4984"
       id="linearGradient6050"
       x1="5.6386652"
       y1="68.251411"
       x2="199.94969"
       y2="68.251411"
       gradientUnits="userSpaceOnUse" />
    <linearGradient
       inkscape:collect="always"
       xlink:href="#linearGradient6056"
       id="linearGradient6058"
       x1="127.44671"
       y1="3.2669778"
       x2="155.02501"
       y2="2.7324388"
       gradientUnits="userSpaceOnUse" />
  </defs>
  <sodipodi:namedview
     id="base"
     pagecolor="#ffffff"
     bordercolor="#666666"
     borderopacity="1.0"
     inkscape:pageopacity="0.0"
     inkscape:pageshadow="2"
     inkscape:zoom="0.7"
     inkscape:cx="378.28195"
     inkscape:cy="420.74254"
     inkscape:document-units="mm"
     inkscape:current-layer="layer2"
     showgrid="false"
     inkscape:window-width="1920"
     inkscape:window-height="1001"
     inkscape:window-x="-9"
     inkscape:window-y="41"
     inkscape:window-maximized="1"
     inkscape:snap-smooth-nodes="true"
     units="in" />
  <metadata
     id="metadata5">
    <rdf:RDF>
      <cc:Work
         rdf:about="">
        <dc:format>image/svg+xml</dc:format>
        <dc:type
           rdf:resource="http://purl.org/dc/dcmitype/StillImage" />
        <dc:title></dc:title>
      </cc:Work>
    </rdf:RDF>
  </metadata>
  <g
     inkscape:label="Layer 1"
     inkscape:groupmode="layer"
     id="layer1"
     transform="translate(-2.1975959,59.372995)">
    <g
       inkscape:groupmode="layer"
       id="layer2"
       inkscape:label="Layer 2">
      <g
         id="g6078"
         transform="matrix(1.2742094,0,0,1.2742094,-2.3021272,-49.520236)">
        <g
           id="g6034">
          <path
             style="fill:url(#linearGradient6050);fill-opacity:1;stroke:#000000;stroke-width:0.40442306px;stroke-linecap:butt;stroke-linejoin:miter;stroke-opacity:0.15500004"
             d="m 32.503376,41.645031 c -36.8878747,2.515605 -31.567721,47.388227 -7.853481,53.60093 -14.648619,47.315019 51.888857,64.296529 79.874265,29.404689 12.89816,-14.22753 19.1266,-12.23155 32.45459,-8.03752 89.51935,18.59261 80.56047,-128.255044 -9.5127,-93.093575 -4.48309,2.08475 -6.67547,-2.571704 -10.854,-10.123347 -15.06287,-27.222365 -87.135535,-34.443864 -84.108674,28.248823 z"
             id="path5801"
             inkscape:connector-curvature="0"
             sodipodi:nodetypes="cccccsc" />
          <circle
             style="opacity:1;fill:#8333d5;fill-opacity:0.96862745;stroke:#000000;stroke-width:0.1;stroke-miterlimit:4;stroke-dasharray:none;stroke-opacity:0.15500004"
             id="path5868"
             r="8.1264877"
             cy="27.646448"
             cx="18.261583" />
          <circle
             style="opacity:1;fill:url(#linearGradient6058);fill-opacity:0.72139306;stroke:#000000;stroke-width:0.1;stroke-miterlimit:4;stroke-dasharray:none;stroke-opacity:0.15500004"
             id="path5868-2"
             cx="135.6232"
             cy="3.2669778"
             r="8.1264877" />
          <circle
             style="opacity:1;fill:#e20cad;fill-opacity:0.78039216;stroke:#000000;stroke-width:0.1;stroke-miterlimit:4;stroke-dasharray:none;stroke-opacity:0.15500004"
             id="path5868-2-3"
             cx="165.5023"
             cy="132.80211"
             r="8.1264877" />
        </g>
        <g
           id="g4965"
           transform="matrix(0.01071756,0,0,-0.01047153,62.422804,107.83015)"
           style="fill:#1a1a1a;stroke:none">
          <g
             transform="translate(-176.335,-216.57362)"
             id="g6064">
            <path
               style="fill:#ffffff"
               inkscape:connector-curvature="0"
               d="m 3205,7534 c -335,-26 -686,-89 -836,-150 -156,-64 -311,-176 -495,-359 -144,-143 -205,-219 -224,-280 -8,-22 -17,-85 -20,-140 -6,-92 -11,-109 -57,-210 -28,-60 -81,-195 -119,-300 l -68,-190 v -115 c -1,-96 3,-127 24,-190 45,-139 27,-380 -32,-411 -32,-17 -108,-5 -184,29 l -69,32 54,-50 c 29,-27 77,-61 106,-77 l 53,-27 -15,-31 c -38,-73 -193,-254 -393,-460 -65,-66 -125,-135 -135,-154 -22,-44 -16,-131 11,-168 14,-18 88,-57 244,-128 l 225,-103 -2,-58 c -2,-66 -33,-173 -63,-222 -11,-18 -34,-41 -50,-50 -25,-14 -30,-23 -30,-55 0,-54 22,-99 65,-134 44,-37 101,-53 187,-53 h 63 l -45,-27 c -79,-46 -108,-73 -130,-118 -26,-55 -19,-88 26,-116 50,-31 101,-95 121,-153 26,-74 23,-216 -6,-329 -22,-85 -22,-90 -6,-130 41,-104 137,-172 285,-203 102,-22 272,-14 355,16 186,66 437,108 706,117 l 186,6 100,-134 c 352,-470 559,-901 659,-1374 26,-119 28,-149 28,-352 1,-145 4,-219 11,-215 8,5 1944,1459 1953,1467 1,1 -52,55 -119,121 -587,576 -881,1066 -861,1435 2,30 8,39 40,56 71,41 202,144 305,243 116,111 134,118 187,73 29,-24 32,-31 27,-67 -3,-23 -24,-79 -46,-126 -22,-47 -52,-131 -67,-185 -35,-131 -40,-348 -10,-460 27,-102 67,-194 122,-282 68,-110 259,-300 390,-386 91,-61 286,-167 305,-167 4,0 -32,39 -80,87 -134,136 -226,290 -239,402 l -5,45 44,-36 c 124,-100 351,-229 497,-282 171,-61 224,-70 417,-71 209,0 285,15 440,89 103,50 209,122 162,112 -112,-25 -177,-14 -238,41 -47,43 -81,104 -105,194 -14,52 -18,110 -20,309 -1,207 -5,261 -23,347 -62,296 -215,549 -433,714 -171,129 -286,155 -460,104 -107,-32 -224,-42 -285,-26 -54,15 -98,57 -113,109 -13,41 -12,42 57,179 163,318 235,606 234,938 0,329 -69,618 -222,931 -64,132 -181,314 -282,439 -91,113 -286,297 -398,377 -230,165 -522,268 -910,324 -110,15 -664,28 -794,18 z m 903,-524 c 200,-18 344,-57 518,-139 690,-328 1020,-1125 764,-1846 -76,-212 -183,-380 -354,-551 -212,-211 -439,-337 -735,-405 -61,-15 -138,-22 -266,-26 -277,-8 -453,28 -692,142 -299,142 -540,380 -690,678 -99,199 -142,375 -150,617 -4,149 -2,193 15,295 56,325 207,606 447,834 271,256 604,393 1000,410 17,0 81,-4 143,-9 z"
               id="path4957" />
            <path
               style="fill:#ffffff;fill-opacity:1"
               inkscape:connector-curvature="0"
               d="m 4062,5983 c -103,-287 -341,-977 -339,-980 8,-8 152,-22 157,-16 4,5 87,240 185,523 98,283 180,520 182,526 5,13 -18,20 -98,29 l -56,7 z"
               id="path4959" />
            <path
               style="fill:#ffffff;fill-opacity:1"
               inkscape:connector-curvature="0"
               d="m 3120,5851 -365,-197 v -134 -133 l 360,-188 c 198,-104 363,-188 368,-189 4,0 7,60 7,134 v 133 l -222,117 c -123,65 -226,121 -230,125 -4,4 96,63 222,131 l 230,125 v 138 c 0,75 -1,137 -2,136 -2,0 -167,-89 -368,-198 z"
               id="path4961" />
            <path
               style="fill:#ffffff;fill-opacity:1"
               inkscape:connector-curvature="0"
               d="m 4420,5912 v -137 l 230,-125 c 126,-68 226,-127 222,-131 -4,-4 -107,-60 -229,-125 l -223,-117 v -134 c 0,-73 3,-133 8,-133 4,0 174,85 377,189 l 370,189 v 133 133 l -245,128 c -135,71 -305,160 -377,198 l -133,69 z"
               id="path4963" />
          </g>
        </g>
        <circle
           r="0"
           cy="3.2669778"
           cx="135.6232"
           id="path5868-2-8"
           style="opacity:1;fill:#ff00a1;fill-opacity:0.72139306;stroke:#000000;stroke-width:0.1;stroke-miterlimit:4;stroke-dasharray:none;stroke-opacity:0.15500004" />
      </g>
    </g>
  </g>
</svg>
