<?xml version="1.0" encoding="UTF-8" standalone="no"?>
<svg
   xmlns:dc="http://purl.org/dc/elements/1.1/"
   xmlns:cc="http://creativecommons.org/ns#"
   xmlns:rdf="http://www.w3.org/1999/02/22-rdf-syntax-ns#"
   xmlns:svg="http://www.w3.org/2000/svg"
   xmlns="http://www.w3.org/2000/svg"
   xmlns:xlink="http://www.w3.org/1999/xlink"
   xmlns:sodipodi="http://sodipodi.sourceforge.net/DTD/sodipodi-0.dtd"
   xmlns:inkscape="http://www.inkscape.org/namespaces/inkscape"
   version="1.1"
   preserveAspectRatio="xMidYMid meet"
   viewBox="0 0 288 288"
   width="288"
   height="288"
   id="svg851"
   sodipodi:docname="github-icon.svg"
   inkscape:version="0.92.4 (5da689c313, 2019-01-14)">
  <metadata
     id="metadata855">
    <rdf:RDF>
      <cc:Work
         rdf:about="">
        <dc:format>image/svg+xml</dc:format>
        <dc:type
           rdf:resource="http://purl.org/dc/dcmitype/StillImage" />
      </cc:Work>
    </rdf:RDF>
  </metadata>
  <sodipodi:namedview
     pagecolor="#ffffff"
     bordercolor="#666666"
     borderopacity="1"
     objecttolerance="10"
     gridtolerance="10"
     guidetolerance="10"
     inkscape:pageopacity="0"
     inkscape:pageshadow="2"
     inkscape:window-width="1920"
     inkscape:window-height="1001"
     id="namedview853"
     showgrid="false"
     inkscape:zoom="2.8055556"
     inkscape:cx="144"
     inkscape:cy="158.25743"
     inkscape:window-x="-9"
     inkscape:window-y="41"
     inkscape:window-maximized="1"
     inkscape:current-layer="g847" />
  <defs
     id="defs837">
    <path
       d="M144.82 3.51C183.62 3.51 216.74 17.24 244.19 44.69C271.63 72.13 285.36 105.26 285.36 144.05C285.36 182.85 271.63 215.97 244.19 243.42C216.74 270.87 183.62 284.6 144.82 284.6C106.03 284.6 72.91 270.87 45.46 243.42C18.01 215.97 4.28 182.85 4.28 144.05C4.28 105.26 18.01 72.13 45.46 44.69C72.91 17.24 106.03 3.51 144.82 3.51ZM144.82 269.23C179.23 269.23 208.69 256.97 233.21 232.44C257.73 207.92 269.99 178.46 269.99 144.05C269.99 109.65 257.73 80.19 233.21 55.67C208.69 31.14 179.23 18.88 144.82 18.88C110.42 18.88 80.96 31.14 56.43 55.67C31.92 80.19 19.66 109.65 19.66 144.05C19.66 178.46 31.92 207.92 56.43 232.44C80.96 256.97 110.42 269.23 144.82 269.23ZM64.67 170.41C66.86 170.77 68.15 171.14 68.52 171.5C71.08 172.6 73.91 175.07 77.02 178.92C80.13 182.76 82.6 185.41 84.43 186.88C93.22 194.2 102.18 194.74 111.34 188.52C112.06 185.96 113.26 183.77 114.9 181.93C116.55 180.1 118.11 178.82 119.57 178.09C121.03 177.36 123.6 176.26 127.25 174.8C115.18 173.7 105.38 171.59 97.88 168.49C90.38 165.37 84.43 161.44 80.04 156.68C74.19 150.09 70.62 141.49 69.34 130.88C68.06 120.26 68.88 110.56 71.81 101.78C74 96.29 77.12 91.35 81.14 86.96C78.21 77.81 78.76 67.38 82.79 55.67C94.5 56.4 105.11 60.43 114.63 67.74C132.92 62.99 151.96 62.8 171.72 67.2C174.28 65.37 178.22 63.07 183.53 60.33C188.83 57.59 195.51 56.03 203.57 55.67C205.03 59.69 206.03 64.45 206.58 69.94C207.13 75.43 206.86 80.55 205.76 85.31C214.17 94.09 218.57 105.81 218.93 120.45C218.93 132.16 216.92 141.86 212.9 149.54C208.87 157.23 201.73 163.64 191.48 168.76C184.53 172.05 175.38 174.07 164.04 174.8C169.16 177.36 172.91 180.01 175.29 182.76C177.67 185.5 179.23 189.8 179.95 195.66C179.95 196.81 179.95 202.57 179.95 212.95C180.29 223 180.47 228.58 180.5 229.7C181.61 231.53 182.88 233.08 184.35 234.36C185.81 235.64 187.09 236.56 188.19 237.11C189.29 237.65 189.66 238.48 189.29 239.58C188.92 240.68 187.46 241.23 184.9 241.23C178.68 241.23 173.73 239.03 170.07 234.64C168.98 232.81 168.43 230.61 168.43 228.05C168.43 225.42 168.43 204.33 168.43 201.7C168.43 198.77 167.7 196.66 166.23 195.38C164.77 194.1 163.3 193.28 161.84 192.91C161.84 196.37 161.84 224.04 161.84 227.5C161.84 233.72 162.57 237.75 164.04 239.58C165.5 241.41 166.42 243.24 166.78 245.07C167.15 245.44 166.87 245.71 165.96 245.89C165.05 246.08 163.49 245.8 161.29 245.07C156.54 243.97 153.24 241.5 151.41 237.65C149.58 233.81 148.66 229.7 148.66 225.3C148.66 223.04 148.66 211.69 148.66 191.27C147.95 191.27 142.24 191.27 141.53 191.27C141.53 211.69 141.53 223.04 141.53 225.3C141.53 229.7 140.61 233.91 138.78 237.93C136.22 243.06 131.46 245.8 124.51 246.16C123.41 245.8 122.86 245.44 122.86 245.07C123.23 244.7 124.33 242.87 126.16 239.58C126.53 238.85 126.98 237.39 127.53 235.19C128.08 232.99 128.35 230.43 128.35 227.5C128.35 224.04 128.35 196.37 128.35 192.91C126.89 193.28 125.52 194.11 124.24 195.38C122.95 196.66 122.32 198.77 122.32 201.7C122.32 204.33 122.32 225.42 122.32 228.05C122.32 230.61 121.77 232.81 120.67 234.64C117.37 239.03 112.43 241.23 105.84 241.23C103.29 241.23 101.82 240.68 101.45 239.58C101.08 238.85 101.18 238.21 101.73 237.66C102.28 237.11 103.1 236.47 104.2 235.73C105.3 235.01 106.03 234.46 106.39 234.09C107.86 232.99 108.96 231.53 109.69 229.7C110.79 228.23 111.06 224.39 110.51 218.17C109.96 211.94 109.87 207.92 110.24 206.09C100.72 209.39 91.02 207.74 81.14 201.15C78.21 198.22 75.29 194.01 72.36 188.52C70.16 184.5 65.77 179.74 59.18 174.25C58.45 173.52 58.45 172.79 59.18 172.05C60.64 170.59 62.48 170.04 64.67 170.41Z"
       id="b1UQ2RDB2i" />
  </defs>
  <g
     id="g847"
     transform="translate(-17.821782,-15.326733)">
    <use
       xlink:href="#b1UQ2RDB2i"
       id="use839"
       style="opacity:1;fill:#6317a6;fill-opacity:1"
       x="0"
       y="0"
       width="100%"
       height="100%"
       transform="matrix(0.94927627,0,0,0.94927627,25.073196,22.767498)" />
    <g
       id="g843"
       transform="translate(16.752475,13.90099)">
      <use
         xlink:href="#b1UQ2RDB2i"
         id="use841"
         style="opacity:1;fill-opacity:0;stroke:#000000;stroke-width:1;stroke-opacity:0"
         x="0"
         y="0"
         width="100%"
         height="100%" />
    </g>
    <ellipse
       style="opacity:1;fill:#000000;fill-opacity:0;stroke:#ffffff;stroke-width:8.9201088;stroke-miterlimit:4;stroke-dasharray:none;stroke-opacity:1"
       id="path1502"
       cx="162.89107"
       cy="159.32674"
       rx="136.63951"
       ry="136.28307" />
  </g>
</svg>
