<?xml version="1.0" encoding="UTF-8" standalone="no"?>
<!DOCTYPE svg PUBLIC "-//W3C//DTD SVG 1.1//EN" "http://www.w3.org/Graphics/SVG/1.1/DTD/svg11.dtd">
<svg version="1.1" xmlns="http://www.w3.org/2000/svg" xmlns:xlink="http://www.w3.org/1999/xlink" preserveAspectRatio="xMidYMid meet" viewBox="0 0 288 288" width="288" height="288"><defs><path d="M154.12 117.61C154.12 125.96 154.12 130.59 154.12 131.52C154.38 131.52 154.51 131.52 154.53 131.52C158.33 124.7 167.6 117.61 181.36 117.61C210.01 117.61 215.33 135.49 215.33 158.76C215.33 161.9 215.33 177.68 215.33 206.06C212.5 206.06 189.83 206.06 187 206.06C187 180.86 187 166.87 187 164.06C187 154.04 186.84 141.21 172.24 141.21C157.48 141.21 155.22 152.1 155.22 163.4C155.22 166.24 155.22 180.45 155.22 206.06C153.33 206.06 143.89 206.06 126.88 206.06L126.88 117.61L126.96 117.61L154.12 117.61ZM284.54 144C284.54 182.79 268.78 217.95 243.39 243.39C217.95 268.86 182.87 284.54 144 284.54C105.21 284.54 70.05 268.78 44.61 243.39C19.14 217.95 3.46 182.87 3.46 144C3.46 105.21 19.22 70.05 44.61 44.61C70.05 19.14 105.13 3.46 144 3.46C182.79 3.46 217.95 19.22 243.39 44.61C268.86 70.05 284.54 105.13 284.54 144ZM51.86 51.76C28.24 75.38 13.66 107.92 13.66 143.92C13.66 179.92 28.24 212.54 51.86 236.06C75.46 259.66 108 274.26 144 274.26C180 274.26 212.62 259.66 236.14 236.06C259.76 212.46 274.34 179.92 274.34 143.92C274.34 107.92 259.76 75.28 236.14 51.76C212.54 28.16 180 13.58 144 13.58C108 13.58 75.38 28.16 51.86 51.76ZM77.82 93.09C77.82 84.89 84.4 78.33 92.57 78.33C100.75 78.33 107.33 84.89 107.33 93.09C107.33 101.26 100.75 107.82 92.57 107.82C84.4 107.82 77.82 101.26 77.82 93.09ZM107.33 206.06L77.82 206.06L77.82 117.61L107.33 117.61L107.33 206.06Z" id="c7UYlvOnJ8"></path></defs><g><g><g><use xlink:href="#c7UYlvOnJ8" opacity="1" fill="#6317a6" fill-opacity="1"></use><g><use xlink:href="#c7UYlvOnJ8" opacity="1" fill-opacity="0" stroke="#000000" stroke-width="1" stroke-opacity="0"></use></g></g></g></g></svg>