<?xml version="1.0" encoding="UTF-8" standalone="no"?>
<!DOCTYPE svg PUBLIC "-//W3C//DTD SVG 1.1//EN" "http://www.w3.org/Graphics/SVG/1.1/DTD/svg11.dtd">
<svg version="1.1" xmlns="http://www.w3.org/2000/svg" xmlns:xlink="http://www.w3.org/1999/xlink" preserveAspectRatio="xMidYMid meet" viewBox="0 0 384 384" width="384" height="200"><defs><path d="M180.73 44.31C221.64 4.43 278.85 -3.23 308.52 27.2C338.18 57.63 329.07 114.62 288.16 154.51C247.25 194.39 190.04 202.05 98 232.43C130.71 141.19 139.82 84.19 180.73 44.31Z" id="a6aL3qbVwM"></path><linearGradient id="gradientambGsnw17" gradientUnits="userSpaceOnUse" x1="308.52" y1="27.2" x2="98.06" y2="226.94"><stop style="stop-color: #6e36d3;stop-opacity: 1" offset="0%"></stop><stop style="stop-color: #d00088;stop-opacity: 1" offset="100%"></stop></linearGradient><path d="M252.07 216.58C293.47 217.84 326.28 243.82 325.34 274.61C324.41 305.41 290.1 329.36 248.7 328.11C207.3 326.86 174.49 300.88 112.3 268.17C176.35 239.28 210.67 215.33 252.07 216.58Z" id="avyHGNwmd"></path><linearGradient id="gradienta9fiIVkxO" gradientUnits="userSpaceOnUse" x1="325.34" y1="274.61" x2="115.19" y2="265.44"><stop style="stop-color: #6e36d3;stop-opacity: 1" offset="0%"></stop><stop style="stop-color: #d00088;stop-opacity: 1" offset="100%"></stop></linearGradient><path d="M6.2 80.07C5 38.67 28.98 4.38 59.78 3.48C90.58 2.58 116.52 35.42 117.73 76.82C118.94 118.22 94.95 152.51 65.99 216.54C33.36 154.31 7.41 121.47 6.2 80.07Z" id="fwhX0kZwM"></path><linearGradient id="gradientaGLxsX6l7" gradientUnits="userSpaceOnUse" x1="59.78" y1="3.48" x2="63.1" y2="213.81"><stop style="stop-color: #6e36d3;stop-opacity: 1" offset="0%"></stop><stop style="stop-color: #d00088;stop-opacity: 1" offset="100%"></stop></linearGradient></defs><g><g><g><g><use xlink:href="#a6aL3qbVwM" opacity="1" fill="url(#gradientambGsnw17)"></use></g><g><use xlink:href="#avyHGNwmd" opacity="1" fill="url(#gradienta9fiIVkxO)"></use></g><g><use xlink:href="#fwhX0kZwM" opacity="1" fill="url(#gradientaGLxsX6l7)"></use></g></g></g></g></svg>
